<svg xmlns="http://www.w3.org/2000/svg" xmlns:xlink="http://www.w3.org/1999/xlink" version="1.1" x="0px" y="0px" viewBox="0 0 96 96" style="enable-background:new 0 0 96 96;" xml:space="preserve"><g><path d="M8.82,21.57c-1.09,1.09-1.09,2.86,0,3.95c1.09,1.09,2.86,1.09,3.95,0c15.91-15.91,41.81-15.91,57.72,0   c7.71,7.71,11.95,17.96,11.95,28.86s-4.25,21.15-11.95,28.86c-1.09,1.09-1.09,2.86,0,3.95c0.54,0.55,1.26,0.82,1.97,0.82   c0.71,0,1.43-0.27,1.97-0.82c18.09-18.09,18.09-47.52,0-65.61C56.34,3.48,26.91,3.48,8.82,21.57z"/><path d="M41.63,27.96c-7.06,0-13.69,2.75-18.68,7.74c-1.09,1.09-1.09,2.86,0,3.95c1.09,1.09,2.86,1.09,3.95,0   c3.94-3.94,9.17-6.1,14.73-6.1c5.57,0,10.8,2.17,14.73,6.1c8.12,8.12,8.12,21.34,0,29.47c-1.09,1.09-1.09,2.86,0,3.95   c0.54,0.54,1.26,0.82,1.97,0.82s1.43-0.27,1.97-0.82c10.3-10.3,10.3-27.06,0-37.36C55.32,30.7,48.68,27.96,41.63,27.96z"/><path d="M41.63,45.39c-2.4,0-4.65,0.93-6.35,2.63c-1.09,1.09-1.09,2.86,0,3.95c1.09,1.09,2.86,1.09,3.95,0   c1.28-1.28,3.52-1.28,4.81,0c1.32,1.33,1.32,3.48,0,4.81c-1.09,1.09-1.09,2.86,0,3.95c0.55,0.54,1.26,0.82,1.97,0.82   c0.71,0,1.43-0.27,1.97-0.82c3.5-3.5,3.5-9.2,0-12.7C46.28,46.33,44.02,45.39,41.63,45.39z"/></g></svg>